<svg id="svg" version="1.1" width="400" height="400" viewBox="0 0 400 400" xmlns="http://www.w3.org/2000/svg" xmlns:xlink="http://www.w3.org/1999/xlink" ><g id="svgg"><path id="path0" d="M0.000 200.000 L 0.000 400.000 200.000 400.000 L 400.000 400.000 400.000 200.000 L 400.000 0.000 200.000 0.000 L 0.000 0.000 0.000 200.000 M360.000 185.000 L 360.000 250.000 300.000 250.000 L 240.000 250.000 240.000 247.500 L 240.000 245.000 297.500 245.000 L 355.000 245.000 355.000 185.000 L 355.000 125.000 200.000 125.000 L 45.000 125.000 45.000 185.000 L 45.000 245.000 102.500 245.000 L 160.000 245.000 160.000 247.500 L 160.000 250.000 100.000 250.000 L 40.000 250.000 40.000 185.000 L 40.000 120.000 200.000 120.000 L 360.000 120.000 360.000 185.000 M128.333 174.833 L 128.333 184.667 131.000 184.667 L 133.667 184.667 133.667 186.167 L 133.667 187.667 125.667 187.667 L 117.667 187.667 117.667 186.167 L 117.667 184.667 120.667 184.667 L 123.667 184.667 123.667 176.333 L 123.667 168.000 121.500 168.000 L 119.333 168.000 119.333 166.500 L 119.333 165.000 123.833 165.000 L 128.333 165.000 128.333 174.833 M240.333 166.667 L 240.333 168.333 238.000 168.333 L 235.667 168.333 235.667 166.667 L 235.667 165.000 238.000 165.000 L 240.333 165.000 240.333 166.667 M253.333 169.074 C 253.333 172.748,253.381 173.080,253.822 172.451 C 255.918 169.458,261.129 170.226,262.967 173.799 C 267.081 181.794,259.718 192.458,254.196 186.500 L 253.418 185.661 253.217 186.664 C 253.019 187.653,252.987 187.667,250.899 187.667 L 248.780 187.667 248.807 176.333 L 248.833 165.000 251.083 165.000 L 253.333 165.000 253.333 169.074 M85.407 171.365 L 85.500 175.730 88.645 171.365 L 91.789 167.000 94.395 167.000 C 97.566 167.000,97.611 166.581,93.940 171.263 C 92.257 173.410,90.747 175.344,90.584 175.562 C 90.388 175.822,91.483 177.877,93.811 181.615 C 95.748 184.727,97.333 187.362,97.333 187.470 C 97.333 187.578,96.147 187.667,94.697 187.667 L 92.060 187.667 89.614 183.478 L 87.169 179.290 86.251 180.317 C 85.386 181.284,85.333 181.527,85.333 184.505 L 85.333 187.667 83.000 187.667 L 80.667 187.667 80.667 177.333 L 80.667 167.000 82.990 167.000 L 85.314 167.000 85.407 171.365 M189.000 168.833 L 189.000 170.667 183.833 170.667 L 178.667 170.667 178.667 173.000 L 178.667 175.333 183.333 175.333 L 188.000 175.333 188.000 177.167 L 188.000 179.000 183.333 179.000 L 178.667 179.000 178.667 181.500 L 178.667 184.000 184.167 184.000 L 189.667 184.000 189.667 185.833 L 189.667 187.667 181.833 187.667 L 174.000 187.667 174.000 177.333 L 174.000 167.000 181.500 167.000 L 189.000 167.000 189.000 168.833 M147.427 171.120 C 149.818 172.130,151.566 174.890,151.907 178.192 L 152.093 180.000 146.503 180.000 L 140.913 180.000 141.091 181.573 C 141.461 184.862,146.284 186.447,147.195 183.579 C 147.402 182.924,150.916 182.805,151.542 183.431 C 152.050 183.939,149.992 186.278,148.290 187.126 C 142.098 190.212,136.297 186.471,136.207 179.333 C 136.125 172.849,141.760 168.725,147.427 171.120 M205.234 171.320 C 207.279 172.567,207.488 173.410,207.608 180.917 L 207.716 187.667 205.441 187.667 L 203.167 187.667 203.143 181.839 C 203.113 174.562,202.512 173.213,199.737 174.202 C 197.798 174.893,197.510 175.856,197.395 182.023 L 197.289 187.667 194.978 187.667 L 192.667 187.667 192.667 179.333 L 192.667 171.000 194.833 171.000 L 197.000 171.000 197.000 172.549 L 197.000 174.099 197.757 172.966 C 199.240 170.745,202.951 169.928,205.234 171.320 M219.810 171.180 C 220.347 171.460,221.020 172.022,221.305 172.428 L 221.825 173.167 221.998 172.167 C 222.166 171.194,222.229 171.164,224.252 171.067 L 226.333 170.968 226.333 179.995 C 226.333 191.005,226.035 192.072,222.500 193.703 C 218.675 195.469,212.000 193.331,212.000 190.340 C 212.000 189.069,215.806 189.052,216.872 190.318 C 218.959 192.798,221.601 191.126,221.919 187.123 L 222.102 184.833 221.224 185.873 C 218.381 189.244,212.893 187.764,211.638 183.288 C 209.427 175.405,214.239 168.275,219.810 171.180 M278.922 171.524 C 282.615 173.364,284.012 179.482,281.764 183.972 C 278.755 189.987,269.058 189.264,267.163 182.885 C 264.644 174.402,271.468 167.809,278.922 171.524 M316.206 171.499 C 317.735 172.261,319.741 174.703,319.246 175.199 C 318.447 175.997,315.627 175.695,314.709 174.712 C 313.131 173.023,309.333 173.324,309.333 175.138 C 309.333 176.241,309.798 176.517,312.987 177.311 C 318.203 178.608,319.860 180.066,319.576 183.108 C 319.034 188.923,307.648 190.110,304.823 184.646 C 304.253 183.545,304.329 183.474,306.415 183.162 C 307.893 182.940,308.059 182.992,308.965 183.962 C 310.652 185.769,315.333 185.342,315.333 183.382 C 315.333 182.061,314.909 181.795,311.544 181.010 C 306.129 179.748,304.188 177.638,305.310 174.237 C 306.399 170.939,312.171 169.488,316.206 171.499 M102.671 171.083 C 102.737 172.498,107.036 183.568,107.201 182.747 C 107.315 182.176,108.187 179.337,109.140 176.438 L 110.871 171.167 113.270 171.069 L 115.668 170.971 114.970 172.735 C 114.586 173.706,112.939 177.913,111.310 182.085 C 106.679 193.948,106.376 194.333,101.683 194.333 L 99.333 194.333 99.333 192.667 L 99.333 191.000 100.759 191.000 C 102.513 191.000,103.371 190.431,104.120 188.769 L 104.697 187.490 101.349 179.520 C 99.507 175.137,98.000 171.426,98.000 171.275 C 98.000 171.041,102.660 170.849,102.671 171.083 M240.333 177.833 L 240.333 184.667 243.000 184.667 L 245.667 184.667 245.667 186.167 L 245.667 187.667 237.667 187.667 L 229.667 187.667 229.667 186.167 L 229.667 184.667 232.667 184.667 L 235.667 184.667 235.667 179.333 L 235.667 174.000 233.500 174.000 L 231.333 174.000 231.333 172.500 L 231.333 171.000 235.833 171.000 L 240.333 171.000 240.333 177.833 M290.346 175.583 C 290.366 182.723,290.816 184.372,292.812 184.608 C 295.223 184.894,296.000 182.881,296.000 176.350 L 296.000 171.000 298.333 171.000 L 300.667 171.000 300.667 179.333 L 300.667 187.667 298.500 187.667 L 296.333 187.667 296.332 186.083 L 296.331 184.500 295.668 185.586 C 293.576 189.018,288.277 188.816,286.655 185.243 C 286.096 184.012,286.014 183.022,286.007 177.417 L 286.000 171.000 288.167 171.000 L 290.333 171.000 290.346 175.583 M143.088 173.730 C 141.960 174.030,141.000 175.373,141.000 176.650 C 141.000 177.293,141.195 177.333,144.333 177.333 C 147.918 177.333,147.947 177.315,147.201 175.530 C 146.514 173.886,144.997 173.222,143.088 173.730 M217.433 174.168 C 215.020 175.858,215.473 183.546,218.036 184.401 C 220.375 185.181,221.805 183.194,221.805 179.167 C 221.805 174.731,219.839 172.483,217.433 174.168 M254.670 174.612 C 252.454 176.828,253.005 183.590,255.493 184.724 C 257.740 185.748,259.313 183.573,259.326 179.423 C 259.341 174.477,257.110 172.172,254.670 174.612 M273.436 174.003 C 270.031 175.375,270.926 185.000,274.459 185.000 C 276.967 185.000,278.000 183.354,278.000 179.356 C 278.000 174.666,276.412 172.804,273.436 174.003 M218.670 220.717 C 220.908 222.033,221.667 223.613,221.667 226.962 L 221.667 229.667 216.833 229.667 L 212.000 229.667 212.000 231.520 L 212.000 233.374 210.750 233.270 L 209.500 233.167 209.528 228.833 C 209.550 225.430,209.678 224.264,210.127 223.403 L 210.698 222.305 196.932 222.403 C 182.141 222.507,182.151 222.506,181.357 224.248 C 181.119 224.770,181.000 230.361,181.000 241.016 L 181.000 257.000 189.361 257.000 C 193.960 257.000,197.661 257.112,197.585 257.250 C 197.510 257.387,197.240 257.987,196.984 258.583 L 196.521 259.667 186.260 259.667 L 176.000 259.667 176.000 261.511 C 176.000 266.203,176.899 266.667,185.989 266.667 C 189.662 266.667,192.667 266.737,192.667 266.822 C 192.667 266.907,192.408 267.521,192.091 268.185 L 191.515 269.392 184.841 269.273 C 174.951 269.096,173.625 268.114,173.543 260.901 L 173.500 257.167 175.908 257.069 L 178.315 256.971 178.408 240.376 L 178.500 223.781 179.439 222.550 C 181.631 219.676,181.307 219.718,200.833 219.781 L 217.167 219.833 218.670 220.717 M214.071 222.836 C 212.959 223.319,212.000 224.933,212.000 226.323 C 212.000 226.963,212.203 227.000,215.704 227.000 L 219.408 227.000 219.174 225.756 C 218.632 222.864,216.635 221.721,214.071 222.836 M186.476 229.857 C 187.096 230.477,187.101 230.521,186.655 231.355 C 186.057 232.472,184.333 231.961,184.333 230.667 C 184.333 229.448,185.592 228.973,186.476 229.857 M189.933 229.733 C 190.514 230.314,190.424 231.653,189.788 231.897 C 188.609 232.349,187.533 230.797,188.347 229.817 C 188.835 229.229,189.399 229.199,189.933 229.733 M193.600 229.733 C 194.157 230.290,194.099 231.169,193.472 231.690 C 192.433 232.552,191.131 230.881,192.013 229.817 C 192.502 229.229,193.066 229.199,193.600 229.733 M197.463 230.083 C 197.891 230.763,197.414 231.770,196.588 231.933 C 196.070 232.035,195.000 231.182,195.000 230.667 C 195.000 229.493,196.819 229.062,197.463 230.083 M201.314 230.917 C 201.219 238.786,194.744 245.715,186.990 246.246 L 184.287 246.432 184.394 245.133 L 184.500 243.833 186.500 243.640 C 193.404 242.972,197.967 238.412,198.566 231.583 L 198.763 229.333 200.048 229.333 L 201.333 229.333 201.314 230.917 M204.476 229.857 C 205.096 230.477,205.101 230.521,204.655 231.355 C 204.057 232.472,202.333 231.961,202.333 230.667 C 202.333 229.448,203.592 228.973,204.476 229.857 M186.476 233.524 C 187.268 234.315,186.679 235.667,185.543 235.667 C 184.968 235.667,184.333 234.967,184.333 234.333 C 184.333 233.115,185.592 232.639,186.476 233.524 M191.447 235.055 C 192.171 236.211,190.237 237.256,189.351 236.188 C 189.051 235.827,189.047 235.536,189.333 235.001 C 189.773 234.178,190.915 234.207,191.447 235.055 M217.600 235.733 C 218.160 236.294,218.099 237.557,217.500 237.787 C 217.088 237.945,217.000 238.805,217.000 242.648 L 217.000 247.318 222.333 258.010 C 228.181 269.733,228.281 270.059,226.820 272.552 C 225.258 275.218,225.575 275.167,210.641 275.167 L 197.448 275.167 196.271 274.269 C 192.827 271.643,193.019 270.623,199.333 258.000 L 204.667 247.337 204.667 242.669 C 204.667 239.892,204.536 238.000,204.345 238.000 C 203.649 238.000,203.352 236.788,203.868 236.052 C 204.467 235.196,216.778 234.911,217.600 235.733 M186.699 237.394 C 187.031 238.013,186.978 238.212,186.347 238.723 C 185.052 239.771,183.560 238.240,184.733 237.067 C 185.357 236.443,186.272 236.595,186.699 237.394 M194.987 237.151 C 195.930 238.287,194.206 239.825,193.161 238.780 C 192.563 238.182,192.531 237.603,193.067 237.067 C 193.609 236.524,194.499 236.563,194.987 237.151 M207.333 242.841 L 207.333 247.681 206.000 250.333 C 205.267 251.792,204.667 253.064,204.667 253.159 C 204.667 253.255,207.442 253.333,210.833 253.333 C 214.225 253.333,217.000 253.294,217.000 253.246 C 217.000 253.198,216.404 251.961,215.675 250.496 L 214.350 247.833 214.342 242.917 L 214.333 238.000 210.833 238.000 L 207.333 238.000 207.333 242.841 M186.649 240.812 C 186.949 241.173,186.953 241.464,186.667 241.999 C 186.227 242.822,185.085 242.793,184.553 241.945 C 183.829 240.789,185.763 239.744,186.649 240.812 M200.689 241.678 C 202.142 242.456,200.997 244.409,199.490 243.723 C 198.545 243.292,198.436 242.612,199.190 241.857 C 199.810 241.237,199.855 241.232,200.689 241.678 M186.476 247.857 C 187.096 248.477,187.101 248.521,186.655 249.355 C 186.057 250.472,184.333 249.961,184.333 248.667 C 184.333 247.448,185.592 246.973,186.476 247.857 M186.476 251.524 C 187.268 252.315,186.679 253.667,185.543 253.667 C 184.968 253.667,184.333 252.967,184.333 252.333 C 184.333 251.115,185.592 250.639,186.476 251.524 M199.913 262.502 C 194.641 273.063,194.006 272.470,210.705 272.595 L 223.341 272.690 224.170 271.860 C 225.451 270.580,225.240 269.806,221.665 262.663 L 218.330 256.000 210.744 256.000 L 203.159 256.000 199.913 262.502 M209.320 261.151 C 209.792 261.719,209.512 262.860,208.837 263.119 C 207.952 263.459,206.855 262.227,207.301 261.394 C 207.747 260.560,208.731 260.441,209.320 261.151 M216.182 266.152 C 216.632 266.602,217.000 267.133,217.000 267.333 C 217.000 267.533,216.632 268.065,216.182 268.515 C 214.441 270.256,212.001 267.865,213.680 266.063 C 214.558 265.120,215.172 265.142,216.182 266.152 " stroke="none" fill="#c4f4e4" fill-rule="evenodd"></path><path id="path1" d="M40.000 185.000 L 40.000 250.000 100.000 250.000 L 160.000 250.000 160.000 247.500 L 160.000 245.000 102.500 245.000 L 45.000 245.000 45.000 185.000 L 45.000 125.000 200.000 125.000 L 355.000 125.000 355.000 185.000 L 355.000 245.000 297.500 245.000 L 240.000 245.000 240.000 247.500 L 240.000 250.000 300.000 250.000 L 360.000 250.000 360.000 185.000 L 360.000 120.000 200.000 120.000 L 40.000 120.000 40.000 185.000 M119.333 166.500 L 119.333 168.000 121.667 168.000 L 124.000 168.000 124.000 176.321 L 124.000 184.642 120.917 184.737 L 117.833 184.833 117.833 186.167 L 117.833 187.500 125.769 187.589 L 133.706 187.679 133.603 186.256 L 133.500 184.833 130.750 184.737 L 128.000 184.640 128.000 174.820 L 128.000 165.000 123.667 165.000 L 119.333 165.000 119.333 166.500 M236.000 166.667 L 236.000 168.333 238.000 168.333 L 240.000 168.333 240.000 166.667 L 240.000 165.000 238.000 165.000 L 236.000 165.000 236.000 166.667 M248.925 176.333 L 248.833 187.667 250.917 187.667 L 253.000 187.667 253.000 186.500 C 253.000 185.081,253.145 185.058,254.199 186.311 C 256.665 189.241,261.146 188.244,262.953 184.364 C 266.682 176.357,260.250 166.996,254.493 172.051 L 253.333 173.069 253.333 169.035 L 253.333 165.000 251.175 165.000 L 249.017 165.000 248.925 176.333 M80.667 177.333 L 80.667 187.667 83.000 187.667 L 85.333 187.667 85.333 184.396 C 85.333 181.223,85.362 181.097,86.297 180.201 L 87.262 179.277 89.176 182.555 C 90.229 184.358,91.327 186.246,91.617 186.750 C 92.121 187.627,92.256 187.667,94.758 187.667 C 96.753 187.667,97.317 187.568,97.137 187.250 C 97.008 187.021,95.501 184.563,93.788 181.788 C 92.076 179.013,90.582 176.500,90.468 176.205 C 90.329 175.841,91.279 174.397,93.399 171.750 C 95.124 169.596,96.649 167.646,96.788 167.417 C 96.981 167.097,96.434 167.004,94.436 167.016 L 91.833 167.033 88.583 171.565 L 85.333 176.098 85.333 171.549 L 85.333 167.000 83.000 167.000 L 80.667 167.000 80.667 177.333 M174.000 177.333 L 174.000 187.667 181.779 187.667 L 189.559 187.667 189.578 186.000 L 189.598 184.333 184.132 184.333 L 178.667 184.333 178.667 181.500 L 178.667 178.667 183.333 178.667 L 188.000 178.667 188.000 177.000 L 188.000 175.333 183.333 175.333 L 178.667 175.333 178.667 172.833 L 178.667 170.333 183.833 170.333 L 189.000 170.333 189.000 168.667 L 189.000 167.000 181.500 167.000 L 174.000 167.000 174.000 177.333 M141.786 170.985 C 135.509 172.482,134.156 183.524,139.842 186.856 C 143.493 188.995,148.702 187.963,150.933 184.659 L 151.715 183.500 149.841 183.232 C 148.031 182.973,147.935 182.999,147.017 183.982 C 145.260 185.863,142.415 185.319,141.312 182.890 C 139.975 179.944,139.878 180.000,146.371 180.000 L 152.076 180.000 151.849 178.417 C 150.980 172.363,147.325 169.664,141.786 170.985 M200.141 171.139 C 199.577 171.385,198.639 172.163,198.057 172.869 L 197.000 174.152 197.000 172.576 L 197.000 171.000 194.806 171.000 L 192.612 171.000 192.794 172.250 C 192.893 172.938,192.980 176.688,192.987 180.583 L 193.000 187.667 194.966 187.667 L 196.931 187.667 197.049 182.250 C 197.202 175.198,197.970 173.687,201.210 174.057 C 202.961 174.257,203.332 175.660,203.333 182.083 L 203.333 187.667 205.535 187.667 L 207.736 187.667 207.614 181.083 C 207.440 171.693,205.326 168.881,200.141 171.139 M214.663 171.417 C 210.613 173.471,210.062 183.641,213.840 186.612 C 215.811 188.163,219.035 187.942,220.844 186.133 L 222.000 184.978 222.000 186.833 C 222.000 191.123,218.137 193.526,216.614 190.184 C 216.254 189.395,216.135 189.364,214.201 189.557 C 211.734 189.803,211.812 189.742,212.337 191.010 C 213.969 194.948,222.314 195.443,224.934 191.758 C 226.145 190.054,226.330 188.443,226.331 179.583 L 226.333 171.000 224.370 171.000 L 222.408 171.000 222.185 172.187 L 221.962 173.375 221.258 172.480 C 219.789 170.613,217.102 170.179,214.663 171.417 M271.705 171.167 C 264.933 173.279,265.104 185.558,271.934 187.544 C 278.479 189.446,283.064 185.444,282.597 178.237 C 282.210 172.272,277.651 169.313,271.705 171.167 M309.331 170.978 C 306.543 171.826,305.333 173.245,305.333 175.667 C 305.333 178.542,306.779 179.788,311.301 180.808 C 314.763 181.589,315.650 182.118,315.662 183.409 C 315.678 185.276,310.486 185.765,308.943 184.042 C 308.117 183.120,307.937 183.064,306.470 183.274 C 304.573 183.545,304.415 183.857,305.413 185.356 C 308.229 189.583,318.098 188.589,319.346 183.953 C 320.209 180.749,318.621 178.940,313.826 177.667 C 310.127 176.685,309.386 176.359,309.148 175.607 C 308.372 173.164,314.550 172.846,315.375 175.286 C 315.587 175.913,319.000 175.358,319.000 174.696 C 319.000 172.060,313.158 169.814,309.331 170.978 M98.000 171.088 C 98.000 171.136,99.499 174.773,101.331 179.171 C 103.163 183.569,104.663 187.371,104.664 187.621 C 104.674 189.503,102.000 191.696,100.339 191.168 C 99.725 190.974,99.667 191.102,99.667 192.644 L 99.667 194.333 101.583 194.326 C 106.161 194.309,106.650 193.652,111.728 180.708 C 115.991 169.841,115.817 171.000,113.186 171.000 L 111.038 171.000 109.380 176.083 C 108.467 178.879,107.547 181.826,107.335 182.631 L 106.948 184.096 104.736 177.548 L 102.523 171.000 100.262 171.000 C 99.018 171.000,98.000 171.039,98.000 171.088 M231.333 172.500 L 231.333 174.000 233.667 174.000 L 236.000 174.000 236.000 179.321 L 236.000 184.642 232.917 184.737 L 229.833 184.833 229.787 186.250 L 229.741 187.667 237.723 187.667 L 245.705 187.667 245.602 186.250 L 245.500 184.833 242.750 184.737 L 240.000 184.640 240.000 177.820 L 240.000 171.000 235.667 171.000 L 231.333 171.000 231.333 172.500 M286.000 176.650 C 286.000 179.758,286.161 183.051,286.358 183.968 C 287.270 188.224,291.808 189.371,294.917 186.131 L 296.333 184.655 296.333 186.161 L 296.333 187.667 298.511 187.667 L 300.689 187.667 300.539 186.750 C 300.456 186.246,300.376 182.489,300.361 178.401 L 300.333 170.968 298.262 171.067 L 296.191 171.167 296.135 176.333 C 296.065 182.837,295.434 184.667,293.260 184.667 C 290.755 184.667,290.338 183.465,290.335 176.250 L 290.333 171.000 288.167 171.000 L 286.000 171.000 286.000 176.650 M146.533 174.467 C 147.241 175.174,147.667 175.925,147.667 176.467 L 147.667 177.333 144.131 177.333 L 140.594 177.333 140.820 176.417 C 141.582 173.316,144.416 172.349,146.533 174.467 M220.617 174.447 C 223.324 177.329,222.044 184.667,218.833 184.667 C 216.347 184.667,214.991 180.811,215.980 176.551 C 216.603 173.867,219.035 172.763,220.617 174.447 M258.072 174.250 C 260.041 176.507,259.931 183.077,257.900 184.499 C 254.897 186.603,252.380 182.150,253.448 176.624 C 253.931 174.126,256.717 172.696,258.072 174.250 M276.766 174.340 C 278.955 176.062,278.659 183.422,276.352 184.657 C 272.868 186.521,270.371 182.227,271.541 176.380 C 272.028 173.945,274.859 172.840,276.766 174.340 M181.583 220.690 C 180.895 221.053,179.920 221.973,179.416 222.734 L 178.500 224.117 178.405 240.559 L 178.309 257.000 175.988 257.000 L 173.667 257.000 173.667 260.645 C 173.667 268.096,174.891 269.000,184.981 269.000 L 191.650 269.000 192.158 268.017 C 192.438 267.476,192.667 266.951,192.667 266.850 C 192.667 266.749,189.427 266.667,185.467 266.667 L 178.267 266.667 177.133 265.533 C 176.049 264.449,176.000 264.294,176.000 261.932 L 176.000 259.464 185.750 259.488 C 197.316 259.517,197.333 259.514,197.333 257.318 C 197.333 257.125,194.059 257.000,189.000 257.000 L 180.667 257.000 180.667 241.323 C 180.667 224.110,180.694 223.853,182.624 222.855 C 183.492 222.406,185.545 222.333,197.281 222.333 L 210.928 222.333 210.297 223.570 C 209.780 224.585,209.667 225.544,209.667 228.904 L 209.667 233.000 210.833 233.000 L 212.000 233.000 212.000 231.227 L 212.000 229.455 216.750 229.466 L 221.500 229.477 221.492 226.594 C 221.484 223.337,220.661 221.783,218.310 220.584 C 216.439 219.630,183.409 219.725,181.583 220.690 M218.231 223.413 C 218.728 223.910,219.123 224.775,219.235 225.616 L 219.421 227.000 215.711 227.000 L 212.000 227.000 212.000 225.800 C 212.000 222.791,216.055 221.237,218.231 223.413 M199.287 229.588 C 198.863 229.676,198.710 230.203,198.607 231.934 C 198.228 238.316,192.020 244.000,185.430 244.000 C 184.399 244.000,184.333 244.070,184.333 245.167 C 184.333 246.303,184.367 246.333,185.650 246.333 C 194.043 246.333,201.300 238.869,201.178 230.362 C 201.167 229.557,200.583 229.318,199.287 229.588 M184.553 230.149 C 184.111 231.302,185.323 232.367,186.225 231.618 C 186.486 231.402,186.654 230.912,186.599 230.529 C 186.475 229.661,184.856 229.360,184.553 230.149 M188.238 229.874 C 187.340 230.772,188.893 232.447,189.871 231.636 C 190.642 230.996,190.310 229.850,189.321 229.735 C 188.856 229.680,188.368 229.743,188.238 229.874 M191.904 229.874 C 191.006 230.772,192.559 232.447,193.537 231.636 C 194.308 230.996,193.977 229.850,192.988 229.735 C 192.522 229.680,192.035 229.743,191.904 229.874 M195.556 229.889 C 195.113 230.332,195.348 231.318,195.977 231.654 C 196.746 232.066,197.820 231.214,197.519 230.430 C 197.417 230.163,197.333 229.883,197.333 229.806 C 197.333 229.577,195.796 229.649,195.556 229.889 M202.553 230.149 C 202.111 231.302,203.323 232.367,204.225 231.618 C 204.486 231.402,204.654 230.912,204.599 230.529 C 204.475 229.661,202.856 229.360,202.553 230.149 M184.856 233.524 C 184.569 233.812,184.336 234.149,184.338 234.274 C 184.367 235.520,186.428 235.671,186.604 234.439 C 186.749 233.420,185.575 232.806,184.856 233.524 M189.750 234.550 C 189.521 234.645,189.333 235.075,189.333 235.505 C 189.333 236.527,190.527 236.949,191.282 236.195 C 192.183 235.293,191.007 234.031,189.750 234.550 M204.313 235.739 C 203.545 236.024,203.464 237.084,204.167 237.667 C 204.568 238.000,204.667 239.013,204.669 242.791 L 204.671 247.500 199.335 258.219 C 193.557 269.827,193.450 270.169,194.822 272.511 C 196.287 275.010,196.221 275.000,210.884 274.999 C 225.505 274.997,225.110 275.063,226.822 272.352 C 228.184 270.194,228.071 269.845,222.167 258.010 L 216.667 246.985 216.667 242.573 C 216.667 238.521,216.721 238.126,217.333 237.744 C 218.062 237.289,218.225 236.178,217.618 235.803 C 217.111 235.490,205.142 235.432,204.313 235.739 M184.643 237.195 C 184.051 237.908,184.647 238.833,185.698 238.833 C 186.605 238.833,186.948 237.907,186.320 237.151 C 185.797 236.521,185.189 236.537,184.643 237.195 M193.040 237.259 C 192.626 238.032,193.163 239.000,194.005 239.000 C 194.954 239.000,195.466 237.847,194.809 237.190 C 194.119 236.500,193.431 236.527,193.040 237.259 M214.333 242.841 L 214.333 247.681 215.678 250.355 C 216.417 251.825,216.950 253.144,216.863 253.285 C 216.740 253.485,204.772 253.577,204.413 253.381 C 204.366 253.355,205.003 251.986,205.830 250.340 L 207.333 247.347 207.333 242.673 L 207.333 238.000 210.833 238.000 L 214.333 238.000 214.333 242.841 M184.657 240.845 C 184.051 241.575,184.636 242.500,185.703 242.500 C 186.366 242.500,186.500 242.332,186.500 241.500 C 186.500 240.329,185.407 239.941,184.657 240.845 M199.033 242.271 C 198.765 242.772,198.824 243.039,199.296 243.466 C 200.150 244.239,201.063 243.816,200.935 242.707 C 200.807 241.604,199.545 241.314,199.033 242.271 M184.553 248.149 C 184.111 249.302,185.323 250.367,186.225 249.618 C 186.486 249.402,186.654 248.912,186.599 248.529 C 186.475 247.661,184.856 247.360,184.553 248.149 M184.856 251.524 C 184.569 251.812,184.336 252.149,184.338 252.274 C 184.367 253.520,186.428 253.671,186.604 252.439 C 186.749 251.420,185.575 250.806,184.856 251.524 M221.952 262.920 C 227.084 273.287,227.752 272.721,210.517 272.595 C 193.775 272.472,194.521 273.144,199.690 262.836 L 203.117 256.000 210.822 256.000 L 218.527 256.000 221.952 262.920 M207.461 261.147 C 207.106 262.072,207.485 262.833,208.302 262.833 C 209.463 262.833,210.022 261.768,209.186 261.147 C 208.361 260.535,207.696 260.535,207.461 261.147 M213.683 266.147 C 212.575 267.482,213.921 269.390,215.566 268.814 C 217.345 268.192,216.891 265.667,215.000 265.667 C 214.495 265.667,213.902 265.883,213.683 266.147 " stroke="none" fill="#5c646c" fill-rule="evenodd"></path><path id="path2" d="M128.148 174.833 C 128.148 180.333,128.193 182.630,128.249 179.937 C 128.305 177.244,128.305 172.744,128.249 169.937 C 128.194 167.130,128.148 169.333,128.148 174.833 M235.767 166.667 C 235.767 167.675,235.829 168.087,235.905 167.583 C 235.982 167.079,235.982 166.254,235.905 165.750 C 235.829 165.246,235.767 165.658,235.767 166.667 M240.100 166.667 C 240.100 167.675,240.162 168.087,240.239 167.583 C 240.315 167.079,240.315 166.254,240.239 165.750 C 240.162 165.246,240.100 165.658,240.100 166.667 M123.812 176.333 C 123.812 181.008,123.858 182.921,123.916 180.583 C 123.973 178.246,123.973 174.421,123.916 172.083 C 123.858 169.746,123.812 171.658,123.812 176.333 M181.266 170.582 C 182.787 170.643,185.187 170.643,186.599 170.581 C 188.011 170.518,186.767 170.468,183.833 170.468 C 180.900 170.469,179.745 170.520,181.266 170.582 M240.141 177.833 C 240.141 181.683,240.190 183.213,240.249 181.232 C 240.308 179.251,240.308 176.101,240.248 174.232 C 240.189 172.363,240.141 173.983,240.141 177.833 M300.476 178.500 C 300.476 182.717,300.524 184.396,300.582 182.231 C 300.641 180.067,300.640 176.617,300.582 174.565 C 300.524 172.512,300.476 174.283,300.476 178.500 M192.809 180.333 C 192.809 184.458,192.857 186.146,192.916 184.083 C 192.974 182.021,192.974 178.646,192.916 176.583 C 192.857 174.521,192.809 176.208,192.809 180.333 M235.802 179.333 C 235.802 182.358,235.853 183.596,235.915 182.083 C 235.976 180.571,235.976 178.096,235.915 176.583 C 235.853 175.071,235.802 176.308,235.802 179.333 M305.077 175.667 C 305.077 176.308,305.146 176.571,305.230 176.250 C 305.314 175.929,305.314 175.404,305.230 175.083 C 305.146 174.762,305.077 175.025,305.077 175.667 M136.095 179.167 C 136.098 180.083,136.163 180.419,136.239 179.912 C 136.316 179.405,136.314 178.655,136.235 178.245 C 136.156 177.835,136.093 178.250,136.095 179.167 M278.100 179.333 C 278.100 180.342,278.162 180.754,278.239 180.250 C 278.315 179.746,278.315 178.921,278.239 178.417 C 278.162 177.912,278.100 178.325,278.100 179.333 M197.133 182.833 C 197.134 185.583,197.185 186.664,197.248 185.235 C 197.311 183.806,197.310 181.556,197.247 180.235 C 197.184 178.914,197.133 180.083,197.133 182.833 M211.084 179.167 C 211.088 179.900,211.156 180.161,211.236 179.746 C 211.315 179.331,211.312 178.731,211.229 178.413 C 211.146 178.094,211.080 178.433,211.084 179.167 M180.917 178.914 C 182.246 178.977,184.421 178.977,185.750 178.914 C 187.079 178.851,185.992 178.799,183.333 178.799 C 180.675 178.799,179.588 178.851,180.917 178.914 M181.433 184.248 C 183.046 184.310,185.596 184.309,187.100 184.248 C 188.603 184.186,187.283 184.136,184.167 184.136 C 181.050 184.137,179.820 184.187,181.433 184.248 M248.762 185.833 C 248.765 186.750,248.829 187.085,248.906 186.579 C 248.982 186.072,248.980 185.322,248.901 184.912 C 248.822 184.502,248.760 184.917,248.762 185.833 M253.000 186.167 C 253.000 186.625,253.058 187.000,253.128 187.000 C 253.198 187.000,253.327 186.625,253.415 186.167 C 253.503 185.708,253.445 185.333,253.287 185.333 C 253.129 185.333,253.000 185.708,253.000 186.167 M99.433 192.667 C 99.433 193.675,99.496 194.088,99.572 193.583 C 99.648 193.079,99.648 192.254,99.572 191.750 C 99.496 191.246,99.433 191.658,99.433 192.667 M192.273 219.916 C 196.732 219.969,203.932 219.969,208.273 219.916 C 212.615 219.864,208.967 219.821,200.167 219.821 C 191.367 219.821,187.815 219.864,192.273 219.916 M180.821 241.167 C 180.821 249.967,180.864 253.519,180.916 249.060 C 180.969 244.602,180.969 237.402,180.916 233.060 C 180.864 228.719,180.821 232.367,180.821 241.167 M209.633 233.100 C 209.788 233.255,210.422 233.330,211.041 233.266 C 212.139 233.153,212.132 233.146,210.759 232.984 C 209.984 232.892,209.478 232.944,209.633 233.100 M216.799 242.667 C 216.799 245.325,216.851 246.412,216.914 245.083 C 216.977 243.754,216.977 241.579,216.914 240.250 C 216.851 238.921,216.799 240.008,216.799 242.667 M185.254 243.902 C 185.669 243.982,186.269 243.979,186.587 243.896 C 186.906 243.812,186.567 243.747,185.833 243.751 C 185.100 243.754,184.839 243.823,185.254 243.902 M182.583 269.248 C 184.279 269.309,187.054 269.309,188.750 269.248 C 190.446 269.188,189.058 269.138,185.667 269.138 C 182.275 269.138,180.887 269.188,182.583 269.248 M204.438 275.250 C 207.888 275.304,213.438 275.304,216.772 275.249 C 220.106 275.195,217.283 275.151,210.500 275.151 C 203.717 275.151,200.989 275.195,204.438 275.250 " stroke="none" fill="#9cbcbc" fill-rule="evenodd"></path><path id="path3" d="" stroke="none" fill="#c8d0d4" fill-rule="evenodd"></path><path id="path4" d="" stroke="none" fill="#c8d0d4" fill-rule="evenodd"></path></g></svg>